<?xml version="1.0" encoding="UTF-8"?>
<svg width="512" height="512" viewBox="0 0 512 512" fill="none" xmlns="http://www.w3.org/2000/svg">
  <rect width="512" height="512" rx="128" fill="#1B3764"/>
  <path d="M256 128C185.307 128 128 185.307 128 256C128 326.692 185.307 384 256 384C326.692 384 384 326.692 384 256C384 185.307 326.692 128 256 128ZM256 352C203.065 352 160 308.935 160 256C160 203.065 203.065 160 256 160C308.935 160 352 203.065 352 256C352 308.935 308.935 352 256 352Z" fill="#FFA726"/>
  <path d="M256 192C238.327 192 224 206.327 224 224C224 241.673 238.327 256 256 256C273.673 256 288 241.673 288 224C288 206.327 273.673 192 256 192Z" fill="#FFA726"/>
  <path d="M256 288C220.654 288 192 316.654 192 352H320C320 316.654 291.346 288 256 288Z" fill="#FFA726"/>
</svg>
